<svg width="30" height="24" viewBox="0 0 30 24" fill="none" xmlns="http://www.w3.org/2000/svg">
<path d="M15 0.480003C13.815 0.480003 12.82 1.30251 12.5325 2.4H0.920002C0.690005 2.3975 0.475003 2.5175 0.357499 2.7175C0.242497 2.9175 0.242497 3.1625 0.357499 3.3625C0.474997 3.5625 0.689998 3.6825 0.920002 3.68H12.5325C12.82 4.77749 13.815 5.6 15 5.6C16.185 5.6 17.18 4.77749 17.4675 3.68H29.08C29.31 3.6825 29.525 3.5625 29.6425 3.3625C29.7575 3.1625 29.7575 2.9175 29.6425 2.7175C29.525 2.5175 29.31 2.3975 29.08 2.4H17.4675C17.18 1.30251 16.185 0.480003 15 0.480003V0.480003ZM15 1.76C15.695 1.76 16.2425 2.295 16.2725 2.98251C16.27 3.02 16.27 3.06 16.2725 3.1C16.2425 3.785 15.695 4.32 15 4.32C14.305 4.32 13.7575 3.785 13.7275 3.0975C13.73 3.06 13.73 3.02 13.7275 2.98C13.7575 2.295 14.305 1.76 15 1.76ZM23.96 9.44C22.775 9.44 21.78 10.2625 21.4925 11.36H0.920002C0.690005 11.3575 0.475003 11.4775 0.357499 11.6775C0.242497 11.8775 0.242497 12.1225 0.357499 12.3225C0.474997 12.5225 0.689998 12.6425 0.920002 12.64H21.4925C21.78 13.7375 22.775 14.56 23.96 14.56C25.145 14.56 26.14 13.7375 26.4275 12.64H29.08C29.31 12.6425 29.525 12.5225 29.6425 12.3225C29.7575 12.1225 29.7575 11.8775 29.6425 11.6775C29.525 11.4775 29.31 11.3575 29.08 11.36H26.4275C26.14 10.2625 25.145 9.44 23.96 9.44ZM23.96 10.72C24.655 10.72 25.2025 11.255 25.2325 11.9425C25.23 11.98 25.23 12.02 25.2325 12.06C25.2025 12.745 24.655 13.28 23.96 13.28C23.265 13.28 22.7175 12.745 22.6875 12.0575C22.69 12.02 22.69 11.98 22.6875 11.94C22.7175 11.255 23.265 10.72 23.96 10.72ZM7.96 18.4C6.775 18.4 5.78 19.2225 5.4925 20.32H0.920002C0.690005 20.3175 0.475003 20.4375 0.357499 20.6375C0.242497 20.8375 0.242497 21.0825 0.357499 21.2825C0.474997 21.4825 0.689998 21.6025 0.920002 21.6H5.4925C5.78 22.6975 6.775 23.52 7.96 23.52C9.145 23.52 10.14 22.6975 10.4275 21.6H29.08C29.31 21.6025 29.525 21.4825 29.6425 21.2825C29.7575 21.0825 29.7575 20.8375 29.6425 20.6375C29.525 20.4375 29.31 20.3175 29.08 20.32H10.4275C10.14 19.2225 9.145 18.4 7.96 18.4ZM7.96 19.68C8.655 19.68 9.2025 20.215 9.2325 20.9025C9.23 20.94 9.23 20.98 9.2325 21.02C9.2025 21.705 8.655 22.24 7.96 22.24C7.265 22.24 6.7175 21.705 6.6875 21.0175C6.69 20.98 6.69 20.94 6.6875 20.9C6.71751 20.215 7.265 19.68 7.96 19.68Z" fill="white"/>
</svg>
